<?xml version="1.0" encoding="UTF-8"?>
<svg id="Layer_1" xmlns="http://www.w3.org/2000/svg" width="19.3in" height="10.4in" version="1.1" viewBox="0 0 1388.9 751.9">
  <!-- Generator: Adobe Illustrator 29.0.1, SVG Export Plug-In . SVG Version: 2.1.0 Build 192)  -->
  <defs>
    <style>
      .st0 {
        fill: #fff;
      }
    </style>
  </defs>
  <rect width="1388.9" height="751.9" rx="79.3" ry="79.3"/>
  <g>
    <g>
      <path class="st0" d="M371.5,513.6l-1.5-3.7c-15.4-32.5-28.6-64.1-39.7-94.7s-20.8-59.9-29.3-87.9l-2.2-7.5h49.2l1.1,4.8c5.7,24.1,12.2,47.6,19.4,70.6,7.2,23,16,45.7,26.5,68,6.7-22.4,13.1-45,19.2-68s11.9-46.5,17.3-70.6l.7-4.8h47.3l-1.9,7.5c-8.2,28.3-17.3,57.6-27.4,87.9-10.1,30.3-21.1,61.9-33,94.7l-1.5,3.7h-44.3Z"/>
      <path class="st0" d="M667,492.7c-6.7,5.7-13.4,10.2-20.1,13.6-6.7,3.4-13.4,5.9-19.9,7.6-6.6,1.7-13.1,2.9-19.6,3.4-6.5.5-12.8.7-19,.7-26.3,0-46.8-7.6-61.3-22.9-14.5-15.3-21.8-37.6-21.8-66.9v-108.1h47.3l-.4,99.5c0,10.2.6,18.8,1.9,25.7,1.2,7,3.4,12.6,6.5,17s7.2,7.5,12.3,9.5c5.1,2,11.4,3,18.8,3,13.2,0,23-2.1,29.4-6.3l.4-148.7h47v171.4l-1.5,1.5Z"/>
      <path class="st0" d="M783.2,517.3c-22.9,0-39.3-4.8-49.4-14.3-10.1-9.6-15.1-24.2-15.1-43.8v-227.7l47-8.2v230.7c0,4.7.3,8.5.9,11.4.6,2.9,1.9,5.2,3.7,6.9,1.9,1.7,4.3,3,7.5,3.7,3.1.7,7.1,1.4,12.1,1.9l6.3.7-7.8,38.8h-5.2Z"/>
      <path class="st0" d="M946.5,514l-1.5-3.7c-8-18.4-17.6-34.5-29.1-48.3-11.4-13.8-25.3-24.7-41.7-32.6v84.6h-47.3V231.9l47.3-8.2v161c10.7-7.2,21.1-16.4,31.3-27.6,10.2-11.2,18.9-22.9,26.1-35l1.9-2.6h46.6l-5.2,8.6c-20.4,33.3-44.3,59.6-71.9,79,20.4,9.7,38.1,23.3,53.1,40.8,15,17.5,27.1,37,36.3,58.3l3.4,7.8h-49.2Z"/>
    </g>
    <path class="st0" d="M1090.1,274.2c0,16.5-12.9,29.4-29.7,29.4s-29.9-12.9-29.9-29.4,13.3-29,29.9-29,29.7,12.9,29.7,29ZM1037.9,274.2c0,12.9,9.6,23.2,22.6,23.2s22.1-10.3,22.1-23-9.4-23.4-22.3-23.4-22.5,10.4-22.5,23.2ZM1055.8,289.4h-6.7v-29c2.7-.5,6.4-.9,11.1-.9s8,.9,10.1,2.1c1.6,1.2,2.8,3.5,2.8,6.4s-2.5,5.7-6,6.7v.4c2.8,1.1,4.4,3.2,5.3,7.1.9,4.4,1.4,6.2,2.1,7.3h-7.3c-.9-1.1-1.4-3.7-2.3-7.1-.5-3.2-2.3-4.6-6-4.6h-3.2v11.7ZM1056,273h3.2c3.7,0,6.7-1.2,6.7-4.2s-1.9-4.4-6.2-4.4-3,.2-3.7.4v8.3Z"/>
  </g>
</svg>